<svg viewBox="0 0 368 142" fill="none" xmlns="http://www.w3.org/2000/svg">
  <g clipPath="url(#clip0_159_2128)">
    <path fillRule="evenodd" clipRule="evenodd" d="M1.37012 70.08L1.40012 17.7C1.64012 9.64001 7.31012 2.91001 16.3601 2.73001L72.7601 2.70001C84.2801 2.70001 94.6201 7.33001 102.1 14.85C109.59 22.37 114.18 32.77 114.18 44.29C114.18 50.18 112.84 56.13 110.32 61.59C109.18 64.06 107.79 66.44 106.17 68.66C109.79 71.57 112.89 75.06 115.35 78.97C119.46 85.49 121.79 93.15 121.79 101.18C121.79 112.44 117.1 122.75 109.56 130.23C102.04 137.69 91.7001 142.35 80.3701 142.35H15.8801C7.52012 142.04 1.68012 135.29 1.37012 127.35V116.48H27.2401H80.3901C84.6701 116.48 88.4701 114.74 91.2201 112C94.0501 109.18 95.7701 105.31 95.7701 101.18C95.7701 96.75 94.0601 92.75 91.2601 89.9C88.5201 87.11 84.7001 85.38 80.3901 85.38H16.8001C7.47012 85.3 1.37012 79.41 1.37012 70.08Z" fill="currentColor"/>
  </g>
</svg>
